<?xml version="1.0" encoding="UTF-8" standalone="no"?>
<!-- Created with Inkscape (http://www.inkscape.org/) -->

<svg
   width="100.06195mm"
   height="61.152187mm"
   viewBox="0 0 100.06195 61.152185"
   version="1.1"
   id="svg5"
   xmlns="http://www.w3.org/2000/svg"
   xmlns:svg="http://www.w3.org/2000/svg">
  <style
     id="style1184" />
  <defs
     id="defs2">
    <filter
       style="color-interpolation-filters:sRGB"
       id="filter3420"
       x="-0.084051311"
       y="-0.15400349"
       width="1.1681026"
       height="1.308007">
      <feFlood
         flood-opacity="0.498039"
         flood-color="rgb(0,0,0)"
         result="flood"
         id="feFlood3410" />
      <feComposite
         in="flood"
         in2="SourceGraphic"
         operator="in"
         result="composite1"
         id="feComposite3412" />
      <feGaussianBlur
         in="composite1"
         stdDeviation="3"
         result="blur"
         id="feGaussianBlur3414" />
      <feOffset
         dx="0"
         dy="0"
         result="offset"
         id="feOffset3416" />
      <feComposite
         in="SourceGraphic"
         in2="offset"
         operator="over"
         result="composite2"
         id="feComposite3418" />
    </filter>
  </defs>
  <g
     id="layer1"
     transform="translate(-18.811833,-143.35739)">
    <path
       id="text113"
       style="font-size:33.5139px;fill:#ffffff;fill-opacity:1;stroke:none;stroke-width:0.5;stroke-dasharray:none;stroke-opacity:1"
       d="m 35.194736,150.55739 c -1.921462,0 -3.574664,1.2739 -4.959904,3.82096 -1.362898,2.52471 -2.401643,5.65271 -3.116606,9.38392 -0.69262,3.73121 -1.039213,7.31724 -1.039213,10.758 l -0.03359,2.68097 c -0.02234,0.42451 -0.03359,0.99398 -0.03359,1.70894 0,1.25119 0.100707,2.12278 0.30179,2.61431 0.223426,0.4692 0.670209,0.70384 1.340487,0.70384 1.675693,0 2.725686,-0.89357 3.150195,-2.68098 0.335139,-1.36289 0.771192,-2.65877 1.307414,-3.88761 0.536222,-1.22885 1.072465,-2.21239 1.608687,-2.9497 0.536222,-0.75964 0.949264,-1.13946 1.239718,-1.13946 0.245768,0 0.368969,0.17892 0.368969,0.5364 0,0.53622 -0.145178,1.508 -0.435632,2.91559 -0.312796,1.60866 -0.469222,2.72614 -0.469222,3.35173 0,1.25118 0.290358,2.21172 0.871265,2.88199 0.580907,0.64794 1.440733,0.97204 2.580204,0.97204 1.38524,0 2.614153,-0.37982 3.686597,-1.13947 0.638014,-0.4427 1.264738,-0.9598 1.879988,-1.54667 0.199205,0.27538 0.421297,0.53405 0.667143,0.77566 1.29587,1.27353 3.116745,1.91048 5.462716,1.91048 1.720378,0 3.329109,-0.42481 4.826062,-1.27383 0.642575,-0.35908 1.219716,-0.73276 1.738395,-1.11983 0.0737,0.40614 0.162909,0.76137 0.272335,1.05317 0.357481,0.8937 0.961207,1.34049 1.810225,1.34049 0.69262,0 1.195122,-0.17892 1.507918,-0.5364 0.335139,-0.37983 0.625497,-1.09448 0.871265,-2.14458 0.335139,-1.36289 0.770675,-2.65877 1.306897,-3.88761 0.536222,-1.22885 1.072465,-2.21239 1.608687,-2.9497 0.558565,-0.75964 1.005348,-1.13946 1.340487,-1.13946 0.245768,0 0.36897,0.17892 0.36897,0.5364 0,0.1564 -0.02249,0.458 -0.06718,0.90486 -0.06703,0.33513 -0.100252,0.67048 -0.100252,1.00562 0,1.02776 0.301605,1.84311 0.904854,2.44636 0.625593,0.60325 1.530407,0.90486 2.714563,0.90486 0.72995,0 1.425375,-0.13735 2.087728,-0.40773 0.272834,1.34777 0.86095,2.46716 1.766301,3.3569 1.295869,1.27353 3.116745,1.91048 5.462715,1.91048 1.720379,0 3.32911,-0.42481 4.826062,-1.27383 0.355699,-0.19877 0.690473,-0.40192 1.008208,-0.60926 0.324149,-0.0765 0.635957,-0.26389 0.935343,-0.56328 0.198104,-0.1926 0.391904,-0.3885 0.581877,-0.58652 0.37231,-0.33146 0.705065,-0.6717 0.993221,-1.02216 0.115378,-0.1336 0.214153,-0.2837 0.298173,-0.447 0.1139,-0.14094 0.228725,-0.28143 0.338997,-0.42478 0.69262,-0.87136 1.385289,-1.96583 2.077909,-3.28404 0.312797,0.35748 0.647626,0.78177 1.005107,1.27331 0.357481,0.46919 0.647839,0.96096 0.871265,1.47484 0.245768,0.51388 0.380217,1.06137 0.402559,1.64228 l -0.904854,-0.10077 c -0.379824,-0.067 -0.71517,-0.10077 -1.005624,-0.10077 -0.826675,0 -1.452379,0.21266 -1.876888,0.63717 -0.424509,0.42451 -0.636653,0.92701 -0.636653,1.50792 0,0.67028 0.301604,1.27349 0.904854,1.80971 0.625592,0.53622 1.519159,0.8046 2.680973,0.8046 1.228842,0 2.290082,-0.37982 3.183785,-1.13947 1.496953,-0.0447 2.74836,-0.31306 3.753776,-0.8046 0.518134,-0.25906 1.047686,-0.62948 1.588534,-1.11001 0.134028,0.33494 0.294879,0.65083 0.489376,0.94258 0.647938,0.91605 1.474538,1.37408 2.479948,1.37408 0.89371,0 1.7428,-0.41356 2.54714,-1.24024 0.80433,-0.84902 1.43003,-2.07793 1.87688,-3.68659 -0.20108,1.54163 -0.38,2.72607 -0.5364,3.55275 l -0.10077,0.7705 c -2.39065,1.83209 -4.24475,3.45207 -5.56296,4.85965 -1.295875,1.42992 -2.189959,2.69258 -2.681495,3.78736 -0.469194,1.09479 -0.703317,2.16728 -0.703317,3.21738 0,1.13947 0.357324,2.05553 1.072286,2.74815 0.714963,0.71496 1.642271,1.07229 2.781746,1.07229 2.413,0 4.34531,-1.6757 5.79758,-5.02709 1.45226,-3.35138 2.59172,-7.89795 3.41839,-13.63999 0.0894,-0.58091 0.39098,-2.44677 0.90486,-5.59708 0.5809,-3.28435 0.87178,-5.19469 0.87178,-5.73091 0,-0.3128 -0.10071,-0.53619 -0.30179,-0.67024 -0.20109,-0.13406 -0.55841,-0.20103 -1.07229,-0.20103 -0.7373,0 -1.29604,0.14518 -1.67586,0.43564 -0.35749,0.29045 -0.62587,0.77097 -0.80461,1.44125 -0.53622,1.98849 -1.09444,3.66419 -1.67535,5.02709 -0.55856,1.36289 -1.0948,2.37914 -1.60868,3.04942 -0.49154,0.67028 -0.9051,1.00562 -1.24024,1.00562 -0.46919,0 -0.70383,-0.42428 -0.70383,-1.2733 0,-0.53622 0.067,-1.21816 0.20102,-2.04484 0.13406,-0.84902 0.29048,-1.73134 0.46922,-2.64738 0.13406,-0.67028 0.31298,-1.41867 0.5364,-2.24534 0.24577,-1.02776 0.36846,-1.63097 0.36846,-1.80971 0,-0.3128 -0.10019,-0.54744 -0.30128,-0.70384 -0.17874,-0.15639 -0.51408,-0.23461 -1.00562,-0.23461 -0.87136,0 -1.5078,0.14518 -1.90996,0.43564 -0.40217,0.29045 -0.71502,0.77097 -0.93845,1.44125 -0.513876,1.56398 -0.882963,3.04951 -1.106389,4.45709 -0.163197,1.01182 -0.265032,2.10331 -0.309025,3.27009 -1.124704,1.24957 -2.129054,2.0526 -3.008602,2.39365 0.04469,-0.40217 0.06718,-0.7145 0.06718,-0.93793 0,-0.78199 -0.190167,-1.49715 -0.569991,-2.14508 -0.357481,-0.67028 -0.893724,-1.47491 -1.608687,-2.41329 -0.491537,-0.60325 -0.860107,-1.10576 -1.105876,-1.50792 -0.223425,-0.40217 -0.334863,-0.77074 -0.334863,-1.10588 0,-0.55856 0.200898,-1.23999 0.603064,-2.04432 0.156398,-0.29045 0.279083,-0.58081 0.368453,-0.87126 0.08937,-0.29046 0.134359,-0.50312 0.134359,-0.63717 0,-0.24577 -0.123202,-0.42417 -0.36897,-0.53589 -0.245768,-0.11171 -0.681305,-0.16743 -1.306897,-0.16743 -1.340555,0 -2.222875,0.49126 -2.647384,1.47433 -0.491536,1.16181 -0.994555,2.29002 -1.508435,3.38481 -0.513879,1.07244 -0.960662,1.93278 -1.340486,2.58072 -0.480482,0.75504 -1.142874,1.67163 -1.979208,2.74298 -0.667631,0.6088 -1.404316,1.13564 -2.210201,1.58027 -1.273527,0.69262 -2.41298,1.03869 -3.418396,1.03869 -1.56398,0 -2.62522,-0.51375 -3.183785,-1.5415 2.636425,-0.64794 4.502288,-1.51901 5.597075,-2.6138 1.117129,-1.11713 1.67535,-2.44675 1.67535,-3.98839 0,-1.31821 -0.390548,-2.35695 -1.172539,-3.1166 -0.78199,-0.78199 -1.821252,-1.17306 -3.117122,-1.17306 -1.452268,0 -2.759394,0.39107 -3.921208,1.17306 -1.139471,0.78199 -2.033038,1.84323 -2.680973,3.18378 -0.400706,0.81523 -0.676512,1.67333 -0.829407,2.57401 -0.284868,0.13824 -0.544683,0.20774 -0.77928,0.20774 -0.558565,0 -0.837675,-0.39107 -0.837675,-1.17306 0,-0.22342 0.08946,-0.78216 0.2682,-1.67587 0.201084,-1.11712 0.301274,-1.82104 0.301274,-2.11149 0,-1.45227 -0.725894,-2.17817 -2.178162,-2.17817 -0.737305,0 -1.552659,0.25714 -2.446362,0.77102 -0.87136,0.51388 -1.765444,1.3737 -2.68149,2.5802 -0.916046,1.2065 -1.742647,2.77076 -2.479952,4.69222 0.08937,-0.98307 0.201325,-1.80967 0.33538,-2.47995 0.134056,-0.67028 0.312459,-1.45241 0.535885,-2.34611 0.335138,-1.25119 0.502811,-2.05581 0.502811,-2.41329 0,-0.3128 -0.08946,-0.52494 -0.2682,-0.63665 -0.178741,-0.11172 -0.491593,-0.16744 -0.938444,-0.16744 -0.826676,0 -1.474357,0.15643 -1.943551,0.46923 -0.446852,0.29045 -0.77095,0.75973 -0.972034,1.40766 -0.762325,2.4106 -1.168491,4.94608 -1.227832,7.60367 -0.757482,0.7516 -1.609681,1.39033 -2.559017,1.9141 -1.273527,0.69262 -2.41298,1.03869 -3.418396,1.03869 -1.56398,0 -2.62522,-0.51375 -3.183785,-1.5415 2.636425,-0.64794 4.501772,-1.51901 5.596558,-2.6138 1.117129,-1.11713 1.675867,-2.44675 1.675867,-3.98839 0,-1.31821 -0.391065,-2.35695 -1.173055,-3.1166 -0.781991,-0.78199 -1.820736,-1.17306 -3.116606,-1.17306 -1.452267,0 -2.759394,0.39107 -3.921208,1.17306 -1.139471,0.78199 -2.033038,1.84323 -2.680973,3.18378 -0.647935,1.31822 -0.972034,2.74803 -0.972034,4.28966 0,0.50001 0.03507,0.97473 0.101286,1.42679 -0.460344,0.50344 -0.866247,0.91621 -1.207161,1.2206 -0.60325,0.53622 -1.128763,0.8046 -1.575615,0.8046 -0.647934,0 -0.971517,-0.44678 -0.971517,-1.34049 0,-0.62559 0.212145,-1.91022 0.636654,-3.85402 0.491537,-2.27895 0.737423,-3.85445 0.737423,-4.72581 0,-1.45227 -0.726411,-2.17817 -2.178679,-2.17817 -0.737305,0 -1.552659,0.25714 -2.446362,0.77102 -0.871361,0.51388 -1.764928,1.3737 -2.680973,2.5802 -0.893703,1.18416 -1.709574,2.72592 -2.446879,4.62504 0,-1.22884 0.03374,-2.42401 0.100769,-3.58583 2.971563,-3.23967 5.116537,-6.06607 6.434749,-8.47907 1.318212,-2.43534 1.97714,-4.78121 1.97714,-7.03781 0,-1.40758 -0.324099,-2.54703 -0.972033,-3.41839 -0.625593,-0.89371 -1.452194,-1.34101 -2.479952,-1.34101 z m -0.703833,3.31815 c 0.290453,0 0.513845,0.18965 0.670243,0.56947 0.156398,0.37982 0.234611,0.92731 0.234611,1.64228 0,1.56398 -0.458031,3.30664 -1.374076,5.2281 -0.893703,1.92146 -2.033156,3.69787 -3.418396,5.32888 0.290453,-2.30129 0.659024,-4.42377 1.105875,-6.36757 0.469194,-1.96615 0.949719,-3.51916 1.441256,-4.65864 0.491537,-1.16181 0.93832,-1.74252 1.340487,-1.74252 z M 49.17011,169.7278 c 0.402166,0 0.715018,0.13393 0.938444,0.40204 0.245768,0.24577 0.368453,0.5806 0.368453,1.00511 0,0.82667 -0.379818,1.55308 -1.139465,2.17868 -0.759648,0.62559 -1.798394,1.09487 -3.116606,1.40766 v -0.0672 c 0,-1.3629 0.279111,-2.52484 0.837675,-3.48557 0.580907,-0.96073 1.284824,-1.44074 2.111499,-1.44074 z m 28.419971,0 c 0.402166,0 0.715018,0.13393 0.938444,0.40204 0.245768,0.24577 0.368453,0.5806 0.368453,1.00511 0,0.82667 -0.379818,1.55308 -1.139466,2.17868 -0.759647,0.62559 -1.798393,1.09487 -3.116605,1.40766 v -0.0672 c 0,-1.3629 0.27911,-2.52484 0.837675,-3.48557 0.580907,-0.96073 1.284823,-1.44074 2.111499,-1.44074 z m 27.414349,15.91892 c -0.69262,3.01625 -1.38529,5.17247 -2.07791,6.46834 -0.69262,1.29587 -1.31832,1.94355 -1.87689,1.94355 -0.33514,0 -0.58102,-0.12268 -0.73742,-0.36845 -0.13406,-0.24577 -0.20102,-0.55862 -0.20102,-0.93844 0,-0.89371 0.37981,-1.9437 1.13946,-3.1502 0.78199,-1.18416 2.0334,-2.50253 3.75378,-3.9548 z" />
    <path
       id="path3045"
       style="font-size:33.5139px;fill:#ffffff;fill-opacity:1;stroke:none;stroke-width:0.5;stroke-dasharray:none;stroke-opacity:1;filter:url(#filter3420)"
       d="m 35.194736,150.55739 c -1.921462,0 -3.574664,1.2739 -4.959904,3.82096 -1.362898,2.52471 -2.401643,5.65271 -3.116606,9.38392 -0.69262,3.73121 -1.039213,7.31724 -1.039213,10.758 l -0.03359,2.68097 c -0.02234,0.42451 -0.03359,0.99398 -0.03359,1.70894 0,1.25119 0.100707,2.12278 0.30179,2.61431 0.223426,0.4692 0.670209,0.70384 1.340487,0.70384 1.675693,0 2.725686,-0.89357 3.150195,-2.68098 0.335139,-1.36289 0.771192,-2.65877 1.307414,-3.88761 0.536222,-1.22885 1.072465,-2.21239 1.608687,-2.9497 0.536222,-0.75964 0.949264,-1.13946 1.239718,-1.13946 0.245768,0 0.368969,0.17892 0.368969,0.5364 0,0.53622 -0.145178,1.508 -0.435632,2.91559 -0.312796,1.60866 -0.469222,2.72614 -0.469222,3.35173 0,1.25118 0.290358,2.21172 0.871265,2.88199 0.580907,0.64794 1.440733,0.97204 2.580204,0.97204 1.38524,0 2.614153,-0.37982 3.686597,-1.13947 0.638014,-0.4427 1.264738,-0.9598 1.879988,-1.54667 0.199205,0.27538 0.421297,0.53405 0.667143,0.77566 1.29587,1.27353 3.116745,1.91048 5.462716,1.91048 1.720378,0 3.329109,-0.42481 4.826062,-1.27383 0.642575,-0.35908 1.219716,-0.73276 1.738395,-1.11983 0.0737,0.40614 0.162909,0.76137 0.272335,1.05317 0.357481,0.8937 0.961207,1.34049 1.810225,1.34049 0.69262,0 1.195122,-0.17892 1.507918,-0.5364 0.335139,-0.37983 0.625497,-1.09448 0.871265,-2.14458 0.335139,-1.36289 0.770675,-2.65877 1.306897,-3.88761 0.536222,-1.22885 1.072465,-2.21239 1.608687,-2.9497 0.558565,-0.75964 1.005348,-1.13946 1.340487,-1.13946 0.245768,0 0.36897,0.17892 0.36897,0.5364 0,0.1564 -0.02249,0.458 -0.06718,0.90486 -0.06703,0.33513 -0.100252,0.67048 -0.100252,1.00562 0,1.02776 0.301605,1.84311 0.904854,2.44636 0.625593,0.60325 1.530407,0.90486 2.714563,0.90486 0.72995,0 1.425375,-0.13735 2.087728,-0.40773 0.272834,1.34777 0.86095,2.46716 1.766301,3.3569 1.295869,1.27353 3.116745,1.91048 5.462715,1.91048 1.720379,0 3.32911,-0.42481 4.826062,-1.27383 0.355699,-0.19877 0.690473,-0.40192 1.008208,-0.60926 0.324149,-0.0765 0.635957,-0.26389 0.935343,-0.56328 0.198104,-0.1926 0.391904,-0.3885 0.581877,-0.58652 0.37231,-0.33146 0.705065,-0.6717 0.993221,-1.02216 0.115378,-0.1336 0.214153,-0.2837 0.298173,-0.447 0.1139,-0.14094 0.228725,-0.28143 0.338997,-0.42478 0.69262,-0.87136 1.385289,-1.96583 2.077909,-3.28404 0.312797,0.35748 0.647626,0.78177 1.005107,1.27331 0.357481,0.46919 0.647839,0.96096 0.871265,1.47484 0.245768,0.51388 0.380217,1.06137 0.402559,1.64228 l -0.904854,-0.10077 c -0.379824,-0.067 -0.71517,-0.10077 -1.005624,-0.10077 -0.826675,0 -1.452379,0.21266 -1.876888,0.63717 -0.424509,0.42451 -0.636653,0.92701 -0.636653,1.50792 0,0.67028 0.301604,1.27349 0.904854,1.80971 0.625592,0.53622 1.519159,0.8046 2.680973,0.8046 1.228842,0 2.290082,-0.37982 3.183785,-1.13947 1.496953,-0.0447 2.74836,-0.31306 3.753776,-0.8046 0.518134,-0.25906 1.047686,-0.62948 1.588534,-1.11001 0.134028,0.33494 0.294879,0.65083 0.489376,0.94258 0.647938,0.91605 1.474538,1.37408 2.479948,1.37408 0.89371,0 1.7428,-0.41356 2.54714,-1.24024 0.80433,-0.84902 1.43003,-2.07793 1.87688,-3.68659 -0.20108,1.54163 -0.38,2.72607 -0.5364,3.55275 l -0.10077,0.7705 c -2.39065,1.83209 -4.24475,3.45207 -5.56296,4.85965 -1.295875,1.42992 -2.189959,2.69258 -2.681495,3.78736 -0.469194,1.09479 -0.703317,2.16728 -0.703317,3.21738 0,1.13947 0.357324,2.05553 1.072286,2.74815 0.714963,0.71496 1.642271,1.07229 2.781746,1.07229 2.413,0 4.34531,-1.6757 5.79758,-5.02709 1.45226,-3.35138 2.59172,-7.89795 3.41839,-13.63999 0.0894,-0.58091 0.39098,-2.44677 0.90486,-5.59708 0.5809,-3.28435 0.87178,-5.19469 0.87178,-5.73091 0,-0.3128 -0.10071,-0.53619 -0.30179,-0.67024 -0.20109,-0.13406 -0.55841,-0.20103 -1.07229,-0.20103 -0.7373,0 -1.29604,0.14518 -1.67586,0.43564 -0.35749,0.29045 -0.62587,0.77097 -0.80461,1.44125 -0.53622,1.98849 -1.09444,3.66419 -1.67535,5.02709 -0.55856,1.36289 -1.0948,2.37914 -1.60868,3.04942 -0.49154,0.67028 -0.9051,1.00562 -1.24024,1.00562 -0.46919,0 -0.70383,-0.42428 -0.70383,-1.2733 0,-0.53622 0.067,-1.21816 0.20102,-2.04484 0.13406,-0.84902 0.29048,-1.73134 0.46922,-2.64738 0.13406,-0.67028 0.31298,-1.41867 0.5364,-2.24534 0.24577,-1.02776 0.36846,-1.63097 0.36846,-1.80971 0,-0.3128 -0.10019,-0.54744 -0.30128,-0.70384 -0.17874,-0.15639 -0.51408,-0.23461 -1.00562,-0.23461 -0.87136,0 -1.5078,0.14518 -1.90996,0.43564 -0.40217,0.29045 -0.71502,0.77097 -0.93845,1.44125 -0.513876,1.56398 -0.882963,3.04951 -1.106389,4.45709 -0.163197,1.01182 -0.265032,2.10331 -0.309025,3.27009 -1.124704,1.24957 -2.129054,2.0526 -3.008602,2.39365 0.04469,-0.40217 0.06718,-0.7145 0.06718,-0.93793 0,-0.78199 -0.190167,-1.49715 -0.569991,-2.14508 -0.357481,-0.67028 -0.893724,-1.47491 -1.608687,-2.41329 -0.491537,-0.60325 -0.860107,-1.10576 -1.105876,-1.50792 -0.223425,-0.40217 -0.334863,-0.77074 -0.334863,-1.10588 0,-0.55856 0.200898,-1.23999 0.603064,-2.04432 0.156398,-0.29045 0.279083,-0.58081 0.368453,-0.87126 0.08937,-0.29046 0.134359,-0.50312 0.134359,-0.63717 0,-0.24577 -0.123202,-0.42417 -0.36897,-0.53589 -0.245768,-0.11171 -0.681305,-0.16743 -1.306897,-0.16743 -1.340555,0 -2.222875,0.49126 -2.647384,1.47433 -0.491536,1.16181 -0.994555,2.29002 -1.508435,3.38481 -0.513879,1.07244 -0.960662,1.93278 -1.340486,2.58072 -0.480482,0.75504 -1.142874,1.67163 -1.979208,2.74298 -0.667631,0.6088 -1.404316,1.13564 -2.210201,1.58027 -1.273527,0.69262 -2.41298,1.03869 -3.418396,1.03869 -1.56398,0 -2.62522,-0.51375 -3.183785,-1.5415 2.636425,-0.64794 4.502288,-1.51901 5.597075,-2.6138 1.117129,-1.11713 1.67535,-2.44675 1.67535,-3.98839 0,-1.31821 -0.390548,-2.35695 -1.172539,-3.1166 -0.78199,-0.78199 -1.821252,-1.17306 -3.117122,-1.17306 -1.452268,0 -2.759394,0.39107 -3.921208,1.17306 -1.139471,0.78199 -2.033038,1.84323 -2.680973,3.18378 -0.400706,0.81523 -0.676512,1.67333 -0.829407,2.57401 -0.284868,0.13824 -0.544683,0.20774 -0.77928,0.20774 -0.558565,0 -0.837675,-0.39107 -0.837675,-1.17306 0,-0.22342 0.08946,-0.78216 0.2682,-1.67587 0.201084,-1.11712 0.301274,-1.82104 0.301274,-2.11149 0,-1.45227 -0.725894,-2.17817 -2.178162,-2.17817 -0.737305,0 -1.552659,0.25714 -2.446362,0.77102 -0.87136,0.51388 -1.765444,1.3737 -2.68149,2.5802 -0.916046,1.2065 -1.742647,2.77076 -2.479952,4.69222 0.08937,-0.98307 0.201325,-1.80967 0.33538,-2.47995 0.134056,-0.67028 0.312459,-1.45241 0.535885,-2.34611 0.335138,-1.25119 0.502811,-2.05581 0.502811,-2.41329 0,-0.3128 -0.08946,-0.52494 -0.2682,-0.63665 -0.178741,-0.11172 -0.491593,-0.16744 -0.938444,-0.16744 -0.826676,0 -1.474357,0.15643 -1.943551,0.46923 -0.446852,0.29045 -0.77095,0.75973 -0.972034,1.40766 -0.762325,2.4106 -1.168491,4.94608 -1.227832,7.60367 -0.757482,0.7516 -1.609681,1.39033 -2.559017,1.9141 -1.273527,0.69262 -2.41298,1.03869 -3.418396,1.03869 -1.56398,0 -2.62522,-0.51375 -3.183785,-1.5415 2.636425,-0.64794 4.501772,-1.51901 5.596558,-2.6138 1.117129,-1.11713 1.675867,-2.44675 1.675867,-3.98839 0,-1.31821 -0.391065,-2.35695 -1.173055,-3.1166 -0.781991,-0.78199 -1.820736,-1.17306 -3.116606,-1.17306 -1.452267,0 -2.759394,0.39107 -3.921208,1.17306 -1.139471,0.78199 -2.033038,1.84323 -2.680973,3.18378 -0.647935,1.31822 -0.972034,2.74803 -0.972034,4.28966 0,0.50001 0.03507,0.97473 0.101286,1.42679 -0.460344,0.50344 -0.866247,0.91621 -1.207161,1.2206 -0.60325,0.53622 -1.128763,0.8046 -1.575615,0.8046 -0.647934,0 -0.971517,-0.44678 -0.971517,-1.34049 0,-0.62559 0.212145,-1.91022 0.636654,-3.85402 0.491537,-2.27895 0.737423,-3.85445 0.737423,-4.72581 0,-1.45227 -0.726411,-2.17817 -2.178679,-2.17817 -0.737305,0 -1.552659,0.25714 -2.446362,0.77102 -0.871361,0.51388 -1.764928,1.3737 -2.680973,2.5802 -0.893703,1.18416 -1.709574,2.72592 -2.446879,4.62504 0,-1.22884 0.03374,-2.42401 0.100769,-3.58583 2.971563,-3.23967 5.116537,-6.06607 6.434749,-8.47907 1.318212,-2.43534 1.97714,-4.78121 1.97714,-7.03781 0,-1.40758 -0.324099,-2.54703 -0.972033,-3.41839 -0.625593,-0.89371 -1.452194,-1.34101 -2.479952,-1.34101 z m -0.703833,3.31815 c 0.290453,0 0.513845,0.18965 0.670243,0.56947 0.156398,0.37982 0.234611,0.92731 0.234611,1.64228 0,1.56398 -0.458031,3.30664 -1.374076,5.2281 -0.893703,1.92146 -2.033156,3.69787 -3.418396,5.32888 0.290453,-2.30129 0.659024,-4.42377 1.105875,-6.36757 0.469194,-1.96615 0.949719,-3.51916 1.441256,-4.65864 0.491537,-1.16181 0.93832,-1.74252 1.340487,-1.74252 z M 49.17011,169.7278 c 0.402166,0 0.715018,0.13393 0.938444,0.40204 0.245768,0.24577 0.368453,0.5806 0.368453,1.00511 0,0.82667 -0.379818,1.55308 -1.139465,2.17868 -0.759648,0.62559 -1.798394,1.09487 -3.116606,1.40766 v -0.0672 c 0,-1.3629 0.279111,-2.52484 0.837675,-3.48557 0.580907,-0.96073 1.284824,-1.44074 2.111499,-1.44074 z m 28.419971,0 c 0.402166,0 0.715018,0.13393 0.938444,0.40204 0.245768,0.24577 0.368453,0.5806 0.368453,1.00511 0,0.82667 -0.379818,1.55308 -1.139466,2.17868 -0.759647,0.62559 -1.798393,1.09487 -3.116605,1.40766 v -0.0672 c 0,-1.3629 0.27911,-2.52484 0.837675,-3.48557 0.580907,-0.96073 1.284823,-1.44074 2.111499,-1.44074 z m 27.414349,15.91892 c -0.69262,3.01625 -1.38529,5.17247 -2.07791,6.46834 -0.69262,1.29587 -1.31832,1.94355 -1.87689,1.94355 -0.33514,0 -0.58102,-0.12268 -0.73742,-0.36845 -0.13406,-0.24577 -0.20102,-0.55862 -0.20102,-0.93844 0,-0.89371 0.37981,-1.9437 1.13946,-3.1502 0.78199,-1.18416 2.0334,-2.50253 3.75378,-3.9548 z" />
  </g>
</svg>
